<svg width="258" height="63" viewBox="0 0 258 63" fill="none" xmlns="http://www.w3.org/2000/svg">
<g clip-path="url(#clip0)">
<path d="M14.4227 28.8853V32.5723H7.32421C7.26116 32.5723 0 32.6321 0 23.612C0 14.592 7.26116 14.7248 7.32421 14.7214H14.4227V18.3885H8.3563C8.3563 18.3885 4.23125 18.1496 4.23125 23.6187C4.23125 29.0878 8.35298 28.8853 8.35298 28.8853H14.4227Z" fill="white"/>
<path d="M20.3797 18.2094H16.4006V32.569H20.3797V18.2094Z" fill="white"/>
<path d="M21.9693 18.2094V21.5413H26.1143V32.569H30.0933V21.5379L33.7139 21.5313L36.9761 26.5623V32.569H40.9585V26.5623L46.4209 18.2094H42.1565L38.9607 23.1076L35.7781 18.2094H21.9693Z" fill="white"/>
<path d="M50.317 32.569V14.7911H55.3149L62.5395 26.6021V14.7911H66.6579V32.569H61.6169L54.4421 21.0733V32.569H50.317Z" fill="white"/>
<path d="M67.9788 32.569L73.7034 18.2094H77.6857L83.4104 32.569H79.2853L78.3793 30.1465H73.0032L72.0972 32.569H67.9788ZM74.0884 27.0402H77.2908L75.6946 22.9118L74.0884 27.0402Z" fill="white"/>
<path d="M134.056 32.569L139.781 18.2094H143.763L149.488 32.569H145.363L144.453 30.1465H139.077L138.174 32.569H134.056ZM140.166 27.0402H143.368L141.772 22.9118L140.166 27.0402Z" fill="white"/>
<path d="M181.881 32.569L187.609 18.2094H191.591L197.312 32.569H193.191L192.281 30.1465H186.905L186.002 32.569H181.881ZM187.99 27.0402H191.196L189.596 22.9118L187.99 27.0402Z" fill="white"/>
<path d="M81.9469 18.2094V21.5413H86.0886V32.569H90.0576V21.5413H94.1827V18.2094H81.9469Z" fill="white"/>
<path d="M100.057 18.2094H96.0775V32.569H100.057V18.2094Z" fill="white"/>
<path d="M128.73 18.2094H132.685V32.569H128.388L123.191 24.0535V32.569H119.242V18.2094H123.625L128.73 26.6818V18.2094Z" fill="white"/>
<path d="M208.011 18.2094H211.971V32.569H207.67L202.476 24.0535V32.569H198.527V18.2094H202.907L208.011 26.6818V18.2094Z" fill="white"/>
<path d="M214.473 18.2094V32.569H218.415V26.6022L223.748 32.569H228.464L221.737 25.1718L228.252 18.2094H223.526L218.415 23.6818V18.2094H214.473Z" fill="white"/>
<path d="M176.697 14.8243C179.568 14.8243 181.237 16.5865 181.237 19.7027C181.237 22.6165 179.03 23.0612 179.03 23.0612C180.829 23.4362 181.685 25.1386 181.685 27.2261C181.685 32.569 177.41 32.569 176.833 32.569H166.247V14.8243H176.697ZM170.302 29.2139H175.804C175.804 29.2139 177.464 29.2139 177.464 27.163C177.464 25.1121 175.804 25.1121 175.804 25.1121H170.302V29.2139ZM170.302 22.0656H175.549C175.549 22.0656 177.228 22.0656 177.228 20.0147C177.228 17.9638 175.549 17.9638 175.549 17.9638H170.302V22.0656Z" fill="white"/>
<path d="M154.807 29.2139V18.2094H150.832V32.569H161.644V29.2139H154.807Z" fill="white"/>
<path d="M109.764 17.9902C107.978 17.9902 102.104 18.0367 102.104 25.3841V25.4372C102.104 32.705 107.978 32.8311 109.764 32.8311C111.566 32.8311 117.426 32.705 117.426 25.4372V25.3841C117.416 18.0367 111.556 17.9902 109.764 17.9902ZM113.298 25.3941V25.424C113.298 29.7382 110.673 29.8245 109.76 29.8245C108.848 29.8245 106.223 29.7448 106.223 25.424V25.3941C106.223 21.0401 108.821 20.9803 109.76 20.9803C110.699 20.9803 113.291 21.0401 113.291 25.3941H113.298Z" fill="white"/>
<path d="M234.517 3.00333L240.288 0.016569C240.326 -0.00337817 240.368 -0.0136386 240.411 -0.0132974C240.472 -0.0108451 240.53 0.0144191 240.573 0.0574644C240.616 0.10051 240.641 0.158185 240.644 0.219011L241.108 10.3707L237.79 11.9736L249.591 16.8619L249.504 18.4515L241.34 15.1993L241.523 19.5135L238.606 21.0401L249.269 25.4041L249.242 26.6784L241.732 23.8211L241.888 27.5048L239.313 28.9517L248.957 33.1232L248.927 34.3677L242.087 31.5601L242.207 34.5237L239.95 35.8511L248.741 39.8335L248.705 40.9153L242.399 38.1111L242.512 40.8224L240.521 42.037L248.485 45.953L248.459 46.8656L242.661 44.1477L242.761 46.4408L241.015 47.5194L248.316 51.2495L248.27 52.1124L242.9 49.4807L243.046 52.6268V52.6699C243.043 52.7652 243.019 52.8587 242.978 52.9444C242.936 53.0302 242.877 53.1062 242.804 53.1677L240.537 54.8934C240.503 54.9214 240.459 54.9366 240.415 54.9365C240.367 54.935 240.321 54.9158 240.287 54.8827C240.253 54.8496 240.232 54.8049 240.229 54.7573L234.262 3.46131C234.262 3.44471 234.262 3.42812 234.262 3.41153C234.264 3.32696 234.29 3.24461 234.334 3.17289C234.379 3.10117 234.442 3.04266 234.517 3.00333Z" fill="white"/>
<path d="M248.695 59.6225L251.313 10.3774C251.327 10.2689 251.364 10.1645 251.421 10.0713C251.478 9.97805 251.554 9.89799 251.645 9.83644L257.618 6.08639C257.661 6.05932 257.711 6.04546 257.761 6.04657C257.825 6.05 257.886 6.07818 257.93 6.1252C257.974 6.17223 257.998 6.23444 257.997 6.29879L252.053 57.0174C252.031 57.1632 251.961 57.2974 251.854 57.399L249.046 59.7552L249.02 59.7785C248.983 59.8101 248.936 59.8267 248.887 59.8249C248.861 59.8249 248.835 59.8197 248.811 59.8094C248.787 59.7991 248.765 59.784 248.747 59.7651C248.729 59.7461 248.715 59.7237 248.706 59.6992C248.697 59.6747 248.693 59.6486 248.695 59.6225Z" fill="white"/>
<path d="M254.273 53.4763C254.271 53.2022 254.351 52.9337 254.501 52.7048C254.652 52.4759 254.868 52.297 255.12 52.1907C255.373 52.0845 255.652 52.0556 255.921 52.1079C256.19 52.1602 256.437 52.2912 256.632 52.4843C256.826 52.6774 256.959 52.924 257.013 53.1927C257.068 53.4614 257.041 53.7402 256.936 53.9936C256.832 54.2471 256.655 54.4638 256.427 54.6163C256.199 54.7688 255.931 54.8502 255.657 54.8502C255.476 54.852 255.296 54.8177 255.128 54.7494C254.96 54.6811 254.807 54.5802 254.678 54.4524C254.549 54.3246 254.447 54.1725 254.378 54.0049C254.308 53.8374 254.273 53.6577 254.273 53.4763ZM256.828 53.4763C256.83 53.2442 256.763 53.0168 256.636 52.8228C256.508 52.6289 256.326 52.4772 256.112 52.387C255.898 52.2968 255.662 52.2721 255.435 52.3162C255.207 52.3603 254.997 52.4711 254.832 52.6345C254.667 52.7979 254.555 53.0066 254.509 53.2342C254.463 53.4617 254.485 53.6977 254.574 53.9124C254.662 54.127 254.812 54.3105 255.005 54.4397C255.198 54.5689 255.425 54.6378 255.657 54.6379C255.966 54.637 256.262 54.5147 256.481 54.2973C256.7 54.0799 256.825 53.785 256.828 53.4763ZM256.314 54.2197H256.059L255.607 53.5228H255.355V54.2197H255.143V52.7031H255.806C256.078 52.7031 256.341 52.7761 256.341 53.1013C256.341 53.4266 256.135 53.5062 255.866 53.5128L256.314 54.2197ZM255.607 53.3137C255.796 53.3137 256.125 53.3469 256.125 53.108C256.125 52.952 255.919 52.9255 255.757 52.9255H255.355V53.3137H255.607Z" fill="white"/>
<path d="M27.4616 57.0937L26.7581 54.7972H23.9339L23.2271 57.0937H21.7271L24.5877 48.3557H26.2669L29.0513 57.0937H27.4616ZM25.3941 49.7927C25.2149 50.4332 24.4716 53.0582 24.2957 53.5726H26.4395C26.3532 53.3967 25.4705 50.1445 25.4074 49.806L25.3941 49.7927Z" fill="white"/>
<path d="M35.0049 57.0937L33.0502 52.9952C32.6349 52.1539 32.2649 51.2909 31.9418 50.41L31.902 50.4465C31.965 51.1799 31.9783 52.0129 31.9916 52.8691L32.0414 57.0937H30.6177V48.3657H32.2571L34.3744 52.6302C34.7306 53.3536 35.0302 54.1037 35.2704 54.8736L35.3069 54.837C35.2704 54.3957 35.1808 53.1445 35.1808 52.3514L35.1576 48.369H36.5315V57.097L35.0049 57.0937Z" fill="white"/>
<path d="M46.9486 57.0937L46.1919 55.743C45.7955 54.9597 45.2942 54.234 44.7019 53.5859C44.6326 53.5029 44.5458 53.4364 44.4476 53.391C44.3495 53.3457 44.2425 53.3227 44.1344 53.3238V57.0937H42.7273V48.3657H45.3822C47.3369 48.3657 48.2196 49.5007 48.2196 50.8646C48.2196 52.1125 47.4099 53.2607 46.0492 53.2607C46.3645 53.4233 46.9453 54.2563 47.3999 54.9997L48.6842 57.0937H46.9486ZM44.9309 49.5405H44.1344V52.3016H44.8811C45.6377 52.3016 46.0393 52.1987 46.3048 51.9366C46.4385 51.7954 46.5431 51.6292 46.6126 51.4475C46.682 51.2659 46.715 51.0723 46.7096 50.8779C46.7096 49.9952 46.2152 49.5405 44.9309 49.5405Z" fill="white"/>
<path d="M53.0382 57.0937H50.5028V48.3657H52.8258C54.1234 48.3657 54.5781 48.4553 55.119 48.7972C55.4246 48.9655 55.6786 49.2138 55.854 49.5155C56.0294 49.8171 56.1194 50.1607 56.1146 50.5096C56.1265 50.9528 55.9825 51.3862 55.7079 51.7342C55.4332 52.0823 55.0451 52.323 54.6113 52.4145C56.0615 52.7662 56.4664 53.7419 56.4664 54.6213C56.4432 56.3537 55.2451 57.0937 53.0382 57.0937ZM53.8579 49.6534C53.5925 49.573 53.3152 49.5393 53.0382 49.5538H51.9431V51.9366H53.1511C53.6821 51.9366 53.9475 51.8967 54.223 51.6047C54.4368 51.3656 54.5549 51.056 54.5549 50.7352C54.5619 50.5055 54.499 50.2791 54.3746 50.086C54.2501 49.8928 54.07 49.7419 53.8579 49.6534ZM54.0206 53.2076C53.7572 53.1415 53.4851 53.1169 53.2141 53.1346H51.9431V55.8957H53.2705C54.379 55.8957 54.8568 55.2651 54.8568 54.482C54.8727 54.2066 54.7988 53.9335 54.6462 53.7037C54.4936 53.4739 54.2706 53.2998 54.0106 53.2076H54.0206Z" fill="white"/>
<path d="M62.0284 57.2297C61.5023 57.2454 60.9796 57.1398 60.5009 56.9211C60.0221 56.7024 59.6 56.3765 59.2673 55.9686C58.5802 55.0801 58.2277 53.9781 58.2717 52.8558C58.241 51.9362 58.4406 51.0236 58.8525 50.2009C59.1514 49.6036 59.6103 49.1011 60.1782 48.7495C60.746 48.3979 61.4004 48.211 62.0683 48.2097C62.8464 48.1873 63.6096 48.4269 64.2353 48.89L63.5716 49.8491C63.1443 49.5249 62.6212 49.3521 62.0848 49.3579C61.7264 49.3554 61.3743 49.4516 61.0669 49.636C60.7596 49.8204 60.509 50.0859 60.3426 50.4033C60.0406 50.9343 59.8912 51.6644 59.8912 52.6998C59.8912 53.7352 60.0041 54.3591 60.2231 54.8669C60.3839 55.2448 60.6555 55.5651 61.0021 55.7855C61.3487 56.0059 61.754 56.1161 62.1645 56.1014C62.736 56.1153 63.2925 55.9179 63.7276 55.5472L64.3913 56.4698C63.7117 56.9818 62.8791 57.2496 62.0284 57.2297Z" fill="white"/>
<path d="M73.0264 57.2297C72.5002 57.2459 71.9774 57.1405 71.4985 56.9218C71.0196 56.7031 70.5976 56.3769 70.2653 55.9686C69.5766 55.0809 69.224 53.9783 69.2697 52.8558C69.239 51.9362 69.4386 51.0236 69.8505 50.2009C70.1491 49.6041 70.6075 49.102 71.1747 48.7504C71.7419 48.3988 72.3956 48.2116 73.0629 48.2097C73.8421 48.1873 74.6063 48.4269 75.2333 48.89L74.5695 49.8491C74.1412 49.5244 73.6169 49.3516 73.0795 49.3579C72.7216 49.3556 72.3699 49.4519 72.0632 49.6363C71.7564 49.8208 71.5064 50.0861 71.3405 50.4033C71.0385 50.9343 70.8859 51.6644 70.8859 52.6998C70.8859 53.7352 70.9987 54.3591 71.2177 54.8668C71.3782 55.2451 71.6497 55.5657 71.9964 55.7861C72.3431 56.0066 72.7486 56.1165 73.1591 56.1014C73.7306 56.1152 74.2871 55.9179 74.7222 55.5472L75.4025 56.4697C74.7191 56.9842 73.8815 57.2521 73.0264 57.2297Z" fill="white"/>
<path d="M80.2278 57.2297C77.7421 57.2297 76.5209 55.3148 76.5209 52.7296C76.5209 49.8557 77.9811 48.2395 80.1714 48.2395C82.6305 48.2395 83.8219 50.1942 83.8219 52.7429C83.8086 55.4675 82.4977 57.2297 80.2278 57.2297ZM80.1515 49.3645C78.6879 49.3645 78.1337 50.5493 78.1337 52.64C78.1337 54.8867 78.7012 56.1345 80.188 56.1345C81.4889 56.1345 82.1559 55.1754 82.1559 52.8159C82.1559 50.7119 81.7145 49.3645 80.1515 49.3645Z" fill="white"/>
<path d="M93.051 57.0936L92.6494 51.6842C92.6096 51.1267 92.5863 50.4364 92.5863 50.1709C92.5233 50.4597 92.4071 51.0139 92.2545 51.5681L90.6649 57.0936H89.4204L87.9701 51.8104C87.8075 51.2296 87.6383 50.4464 87.5918 50.151C87.5918 50.4398 87.542 51.2727 87.5022 51.8104L87.1272 57.0837H85.7002L86.4967 48.3557H88.4248L89.7522 53.3004C89.9514 54.0305 90.0277 54.5217 90.0841 54.7872C90.1239 54.5217 90.2368 53.931 90.416 53.3236L91.7899 48.3457H93.7213L94.4912 57.0737L93.051 57.0936Z" fill="white"/>
<path d="M99.7247 53.7651H98.2479V57.0837H96.8209V48.3557H99.144C100.418 48.3557 100.883 48.4818 101.364 48.7739C101.743 48.998 102.054 49.32 102.264 49.7061C102.475 50.0921 102.578 50.5279 102.562 50.9675C102.549 52.7031 101.298 53.7651 99.7247 53.7651ZM100.594 49.9686C100.434 49.8155 100.243 49.6981 100.035 49.6243C99.8257 49.5505 99.6036 49.5219 99.3829 49.5405H98.2479V52.6036H99.3829C100.455 52.6036 100.946 52.0991 100.946 51.067C100.976 50.6691 100.85 50.275 100.594 49.9686Z" fill="white"/>
<path d="M108.576 57.0937L107.869 54.7972H105.045L104.338 57.0937H102.838L105.702 48.3557H107.361L110.149 57.0937H108.576ZM106.508 49.7927C106.332 50.4332 105.589 53.0582 105.413 53.5726H107.553C107.441 53.3967 106.571 50.1445 106.508 49.806V49.7927Z" fill="white"/>
<path d="M116.106 57.0937L114.151 52.9952C113.735 52.1538 113.364 51.2909 113.039 50.41L113.003 50.4465C113.066 51.1799 113.079 52.0129 113.092 52.8691L113.142 57.0937H111.715V48.3657H113.354L115.475 52.6302C115.829 53.3542 116.127 54.1042 116.368 54.8736L116.408 54.837C116.368 54.3957 116.281 53.1445 116.281 52.3514L116.255 48.369H117.629V57.097L116.106 57.0937Z" fill="white"/>
<path d="M123.204 53.576V57.0937H121.711V53.5627L118.963 48.3657H120.715L122.026 51.1036C122.202 51.4685 122.357 51.843 122.49 52.2253C122.544 52.0992 122.769 51.5616 122.972 51.1268L124.299 48.3657H125.988L123.204 53.576Z" fill="white"/>
<path d="M0.978971 43.397H0.828971V43.547V60.0362C0.800673 60.3197 0.868944 60.6047 1.02286 60.8447C1.17791 61.0865 1.41063 61.2683 1.68272 61.3603C5.8489 62.876 10.4158 62.876 14.582 61.3602C14.8535 61.2676 15.0855 61.0854 15.2399 60.8436C15.393 60.6037 15.4608 60.3192 15.4322 60.0361V43.547V43.397H15.2822H0.978971Z" fill="#0060A9" stroke="white" stroke-width="0.3" stroke-miterlimit="10"/>
<path d="M4.81529 53.5992C2.82411 52.3647 2.1803 51.8171 2.1272 51.0073C2.12964 50.7934 2.16777 50.5814 2.24003 50.3801L2.05419 50.2573C1.8987 50.5102 1.81389 50.8001 1.80861 51.0969C1.80509 51.4904 1.92079 51.8756 2.14047 52.202C2.48707 52.6939 2.92541 53.1142 3.43142 53.4399C4.13531 53.9497 4.69177 54.6367 5.04427 55.4311H5.15379V54.6213C6.20247 55.2187 7.12837 55.7795 7.58634 56.7817H7.69586C7.50338 55.7131 6.91598 54.9134 4.81529 53.5992Z" fill="#FFD520"/>
<path d="M13.9383 56.7518H13.8055C13.8055 56.0118 13.1252 55.8126 12.4183 55.8126H10.2048C10.2866 56.2044 10.3034 56.6069 10.2546 57.004H10.1451C9.93931 55.3447 9.00013 54.5217 7.68928 53.6423V54.3956H7.57976C7.14353 53.5765 6.51062 52.8786 5.73792 52.3646L5.14721 51.9431V52.7595H5.03769C4.72906 51.9498 4.17153 51.3491 3.37838 50.629C2.51885 49.8557 2.1704 49.3911 1.97128 48.8601C1.85676 48.5606 1.80153 48.2416 1.80867 47.921C1.79514 47.6428 1.85373 47.3659 1.97874 47.117C2.10375 46.8681 2.29095 46.6558 2.52218 46.5006V46.8092C2.32331 47.078 2.2173 47.4041 2.22018 47.7384C2.21975 48.0696 2.29825 48.3961 2.44917 48.6909C2.93369 49.6135 4.56313 50.7451 5.59854 51.4387C8.82093 53.5991 9.46474 53.9775 9.99904 55.1224C10.0705 55.284 10.1271 55.4517 10.1683 55.6235L12.6307 55.2452C12.6904 55.2452 12.8166 55.2186 12.8796 55.2153C13.1663 55.0321 13.4106 54.79 13.5964 54.5051L12.3619 54.4089C12.3087 54.531 12.2477 54.6496 12.1794 54.764H12.0798C12.113 54.6412 12.1429 54.5151 12.1694 54.3956L11.8542 54.3724V54.3027L12.186 54.2629C12.2463 53.9342 12.2807 53.6013 12.2889 53.2673L10.7325 53.1777C10.7242 53.3269 10.7242 53.4764 10.7325 53.6257H10.6329C10.5997 53.473 10.5732 53.317 10.5533 53.1677L10.2214 53.1478V53.0449L10.5533 53.0283C10.5118 52.6537 10.5007 52.2764 10.5201 51.9L9.61076 51.8602C9.65653 51.9401 9.69645 52.0233 9.73024 52.1091C9.88297 52.5897 9.91151 53.1012 9.8132 53.5958H9.70369C9.67787 53.2458 9.59724 52.902 9.46474 52.577C9.21253 51.9863 8.64836 51.4619 7.70255 50.8546V51.6113H7.59304C7.27777 50.6157 6.49457 50.0615 5.32973 49.4641C4.36733 48.9696 4.06865 48.3756 4.12507 47.4564L4.45693 47.6488C4.47654 48.0151 4.63641 48.3597 4.90335 48.6112C5.1703 48.8627 5.52383 49.0017 5.89058 48.9995C6.27998 48.9947 6.66794 48.9514 7.04878 48.8701C7.51512 48.7284 8.01023 48.7101 8.48575 48.817V48.3092H8.15389C7.95503 48.4604 7.70988 48.5378 7.46029 48.5283C7.32067 48.5393 7.18029 48.5212 7.04796 48.4754C6.91564 48.4295 6.79424 48.3567 6.69139 48.2617C6.58853 48.1666 6.50645 48.0513 6.45031 47.923C6.39417 47.7947 6.36517 47.6561 6.36514 47.5161C6.36514 46.8225 6.95254 46.7097 7.43374 46.7097C7.68928 46.7097 8.11738 46.7097 8.26008 46.7097C8.34665 46.7165 8.43243 46.6891 8.49902 46.6333C8.54834 46.5859 8.57896 46.5223 8.58531 46.4541C8.59391 46.3437 8.59391 46.2327 8.58531 46.1223V45.6112H6.36183V46.494L5.52221 46.1621V45.953H5.92377V45.6012H4.42707V44.8711H3.89941C3.74485 44.8683 3.59522 44.9255 3.48197 45.0307C3.36872 45.136 3.30066 45.281 3.2921 45.4353C3.26887 45.7904 3.42816 46.099 3.79653 46.099H3.8629V46.5238H3.79653C3.64796 46.5279 3.5001 46.5017 3.36198 46.4469C3.22385 46.392 3.09834 46.3096 2.99309 46.2046C2.88784 46.0997 2.80505 45.9744 2.74976 45.8364C2.69448 45.6985 2.66786 45.5507 2.67152 45.4021C2.67622 45.2426 2.71248 45.0856 2.77821 44.9402C2.84395 44.7947 2.93785 44.6638 3.05449 44.5548C3.17113 44.4459 3.3082 44.3612 3.45778 44.3055C3.60736 44.2499 3.76648 44.2244 3.92596 44.2307H5.00783V44.9608H9.2258V46.0393C9.22656 46.2333 9.21659 46.4272 9.19594 46.6201C9.18816 46.714 9.16045 46.8052 9.11467 46.8876C9.06889 46.97 9.00609 47.0417 8.93045 47.0979C8.74009 47.2125 8.51743 47.2614 8.29659 47.2373C8.19371 47.2373 7.89503 47.2373 7.53662 47.2108C7.05542 47.1809 6.91935 47.3668 6.89944 47.5426C6.89611 47.5769 6.89611 47.6113 6.89944 47.6455C7.02445 47.5441 7.17218 47.4746 7.32997 47.4428C7.48776 47.411 7.65091 47.4179 7.80543 47.463C8.43929 47.6621 8.62181 47.682 8.95367 47.4198L8.98686 47.4962C8.93333 47.574 8.86845 47.6433 8.79438 47.7019H9.09969V49.3612L10.0588 48.7871H12.7435L14.071 49.4807C14.1384 49.5095 14.1974 49.5551 14.2421 49.6133C14.2869 49.6714 14.3159 49.74 14.3265 49.8126C14.3426 49.9489 14.3159 50.0869 14.2502 50.2075L13.7391 51.0471C14.0095 51.3389 14.2164 51.6836 14.347 52.0594C14.4775 52.4351 14.5288 52.8338 14.4976 53.2304C14.4665 53.627 14.3535 54.0128 14.1658 54.3636C13.9782 54.7143 13.7199 55.0224 13.4073 55.2684C13.7305 55.3653 14.0098 55.5718 14.1971 55.8525L13.9383 56.7518ZM7.96472 47.7915C7.82864 47.7403 7.68076 47.729 7.53849 47.759C7.39621 47.789 7.26546 47.859 7.16162 47.9608C7.28198 48.0162 7.41443 48.0402 7.54658 48.0305C7.62732 48.0209 7.70512 47.9943 7.77489 47.9526C7.84466 47.9108 7.90483 47.8548 7.95145 47.7882L7.96472 47.7915ZM7.74569 50.1876L8.81097 49.5537C8.59019 49.4401 8.34579 49.3798 8.09747 49.3778C7.66506 49.4179 7.23594 49.4878 6.81316 49.5869C6.93263 49.6765 7.4072 49.9785 7.73242 50.1843L7.74569 50.1876ZM12.4913 50.2573L12.6373 50.0515L12.4117 49.7462L12.4482 49.6798L13.0887 50.0117L12.9493 50.4365C13.0655 50.4917 13.1766 50.5573 13.2812 50.6323L13.696 49.952L12.6241 49.3911H10.2513L8.32977 50.546C8.66945 50.7744 8.98129 51.0417 9.25899 51.3425C9.61452 50.8417 10.119 50.466 10.7006 50.2687C11.2822 50.0715 11.9112 50.0628 12.498 50.244L12.4913 50.2573ZM12.2989 52.9454C12.2875 52.6229 12.2487 52.3021 12.1827 51.9863L10.9249 51.9299C10.8426 52.2904 10.7861 52.6564 10.7557 53.025L12.2989 52.9454ZM12.7203 52.0128C12.759 52.3143 12.7668 52.619 12.7435 52.9221L13.9914 52.8558C13.9596 52.5786 13.8799 52.3091 13.7557 52.0593L12.7203 52.0128ZM12.0865 51.6046C11.9976 51.2894 11.8752 50.9845 11.7214 50.6953H11.5621C11.4755 50.6969 11.3891 50.7035 11.3033 50.7152C11.1789 51.0257 11.0747 51.3438 10.9913 51.6677L12.0865 51.6046ZM12.4183 50.8513C12.5062 51.0874 12.5782 51.3291 12.634 51.5748L13.394 51.5316C13.1306 51.2263 12.7952 50.9913 12.4183 50.848V50.8513ZM13.8188 54.0604C13.9124 53.8426 13.9674 53.6101 13.9814 53.3735L12.6871 53.3004C12.6345 53.6207 12.5477 53.9345 12.4283 54.2363L13.8188 54.0604ZM10.6296 50.9011C10.2242 51.0783 9.8785 51.3687 9.63399 51.7374L10.5201 51.6909C10.5371 51.4242 10.5737 51.1591 10.6296 50.8978V50.9011Z" fill="#FFD520"/>
<path d="M8.98681 58.6766C9.17571 58.6539 9.3503 58.5645 9.47925 58.4246C9.60819 58.2847 9.68304 58.1035 9.69036 57.9133C9.69036 57.5284 9.52775 57.1102 8.40274 57.1102H6.50116V57.1401C6.57939 57.1644 6.65095 57.2064 6.71023 57.2629C6.84179 57.4201 6.90617 57.6228 6.88944 57.8271V60.6678H8.46247C9.32863 60.6678 9.95585 60.3359 9.95585 59.5826C9.95585 58.9554 9.47797 58.6965 8.98681 58.6766ZM8.17375 57.4487C8.57862 57.4487 8.83748 57.535 8.83748 57.9664C8.83748 58.3979 8.47243 58.5505 8.05428 58.5505H7.69587V57.4487H8.17375ZM8.21357 60.3359H7.70582V58.8824H8.19034C8.85407 58.8824 9.1096 59.0782 9.1096 59.5793C9.1096 60.0804 8.78106 60.3359 8.21357 60.3359Z" fill="white"/>
<path d="M5.10071 60.6677H6.12617L4.79872 59.0084C5.32307 58.8657 5.71798 58.5803 5.71798 58.056C5.71798 57.4453 5.34961 57.1201 4.39053 57.1201H2.39935V57.15C2.47686 57.1774 2.54799 57.2203 2.60843 57.2761C2.6788 57.3633 2.73092 57.4638 2.7617 57.5715C2.79249 57.6793 2.80131 57.7921 2.78763 57.9033V60.6677H3.61065V59.0914H3.91265L5.10071 60.6677ZM3.6372 57.4453H4.19141C4.6527 57.4453 4.89496 57.5814 4.89496 58.0726C4.89496 58.5073 4.57969 58.7695 4.07526 58.7695H3.6372V57.4453Z" fill="white"/>
<path d="M13.2844 57.5848C13.4064 57.6513 13.5066 57.7515 13.5731 57.8735H13.6063L13.7855 57.2629C13.4526 57.0825 13.0747 57.0019 12.697 57.0306C11.5388 57.0306 10.6727 57.6147 10.6727 58.8923C10.6727 60.3293 11.7048 60.7043 12.6174 60.7043C13.0286 60.7405 13.4407 60.6464 13.7955 60.4355V60.0173C13.5254 60.2187 13.1925 60.3175 12.8563 60.2961C12.3253 60.2961 11.5488 60.0539 11.5289 58.8724C11.5123 57.7806 11.9868 57.4222 12.6273 57.4222C12.8574 57.4123 13.0855 57.4687 13.2844 57.5848Z" fill="white"/>
<path d="M16.4471 62.065C16.2695 62.0669 16.0953 62.0161 15.9466 61.9188C15.798 61.8216 15.6816 61.6823 15.6122 61.5188C15.5429 61.3552 15.5237 61.1748 15.5572 61.0003C15.5906 60.8258 15.6751 60.6652 15.8 60.5389C15.925 60.4126 16.0846 60.3263 16.2587 60.2909C16.4327 60.2555 16.6134 60.2727 16.7777 60.3402C16.942 60.4077 17.0826 60.5225 17.1815 60.6701C17.2804 60.8177 17.3332 60.9913 17.3332 61.1689C17.3341 61.4051 17.2413 61.632 17.0753 61.8C16.9092 61.9679 16.6833 62.0632 16.4471 62.065ZM16.4471 60.4521C16.3033 60.4455 16.1608 60.4821 16.038 60.5572C15.9153 60.6324 15.8178 60.7426 15.7583 60.8736C15.6987 61.0047 15.6799 61.1506 15.704 61.2925C15.7282 61.4344 15.7944 61.5658 15.894 61.6698C15.9936 61.7737 16.1221 61.8454 16.2628 61.8756C16.4036 61.9058 16.5501 61.8931 16.6836 61.8392C16.8171 61.7853 16.9314 61.6926 17.0117 61.5732C17.0919 61.4537 17.1346 61.3129 17.1341 61.1689C17.1363 61.0767 17.1202 60.9849 17.0869 60.8989C17.0535 60.8129 17.0034 60.7343 16.9396 60.6677C16.8758 60.6011 16.7994 60.5478 16.7149 60.5108C16.6304 60.4738 16.5394 60.4538 16.4471 60.4521ZM16.5069 60.6612C16.5461 60.6593 16.5854 60.6656 16.6221 60.6798C16.6588 60.694 16.6921 60.7157 16.7199 60.7435C16.7477 60.7713 16.7694 60.8046 16.7836 60.8413C16.7978 60.878 16.8041 60.9172 16.8022 60.9565C16.807 61.0226 16.7862 61.088 16.7443 61.1392C16.7023 61.1905 16.6423 61.2237 16.5766 61.232C16.5925 61.2447 16.607 61.2591 16.6197 61.2751C16.6761 61.3481 16.8586 61.6634 16.8586 61.6634H16.6197L16.5268 61.4975C16.4272 61.3183 16.3973 61.2718 16.3608 61.2519H16.3277V61.6634H16.1319V60.6678L16.5069 60.6612ZM16.3277 61.0959H16.3973C16.4836 61.0959 16.5201 61.0959 16.5467 61.0627C16.5601 61.0493 16.5706 61.0332 16.5775 61.0155C16.5843 60.9978 16.5874 60.9788 16.5865 60.9599C16.5898 60.9342 16.5843 60.9081 16.5711 60.8859C16.5579 60.8637 16.5376 60.8465 16.5135 60.8371C16.4761 60.8319 16.4381 60.8319 16.4007 60.8371H16.3277V61.0959Z" fill="#0060A9"/>
</g>
<defs>
<clipPath id="clip0">
<rect width="258" height="62.513" fill="white"/>
</clipPath>
</defs>
</svg>
