<svg id="CNB_Logo"
  xmlns="http://www.w3.org/2000/svg" viewBox="0 0 778 200" role="img" aria-labelledby="CNB_Logo_title" preserveAspectRatio="xMinYMin meet">
  <defs>
    <style>
                    .cls-1 {fill: #231f20;}
                    .cls-2 {fill: #1b559b;}
                    .cls-3 {fill: #0060a9;}
                    .cls-4 {fill: #ffd520;}
                    .cls-5 {fill: #fff;}
    </style>
  </defs>
  <title id="CNB_Logo_title">City National Bank, An RBC Company</title>
  <path class="cls-1" d="M43.46,87V98.14H22.07c-.19,0-22.07.19-22.07-27S21.88,44.39,22.07,44.38H43.46v11H25.18s-12.41-.74-12.41,15.74S25.18,87,25.18,87Z"/>
  <rect class="cls-1" x="49.42" y="54.87" width="11.99" height="43.27"/>
  <path class="cls-1" d="M55.42,76.51"/>
  <polygon class="cls-1" points="66.2 54.87 66.2 64.91 78.69 64.91 78.69 98.14 90.68 98.14 90.68 64.9 101.59 64.88 111.42 80.04 111.42 98.14 123.42 98.14 123.42 80.04 139.88 54.87 127.03 54.87 117.4 69.63 107.81 54.87 66.2 54.87"/>
  <polygon class="cls-1" points="151.62 98.14 151.62 44.57 166.68 44.57 188.45 80.16 188.45 44.57 200.86 44.57 200.86 98.14 185.67 98.14 164.05 63.5 164.05 98.14 151.62 98.14"/>
  <path class="cls-1" d="M204.84,98.14l17.25-43.27h12L251.3,98.14H238.91l-2.73-7.3H220l-2.72,7.3Zm18.41-16.67h9.65L228.09,69Z"/>
  <path class="cls-1" d="M403.94,98.14,421.2,54.87h12l17.25,43.27H438l-2.74-7.3h-16.2l-2.72,7.3Zm18.41-16.67H432L427.2,69Z"/>
  <path class="cls-1" d="M548.06,98.14l17.25-43.27h12l17.25,43.27H582.14l-2.74-7.3H563.2l-2.72,7.3Zm18.41-16.67h9.65L571.31,69Z"/>
  <polygon class="cls-1" points="246.93 54.87 246.93 64.91 259.41 64.91 259.41 98.14 271.37 98.14 271.37 64.91 283.8 64.91 283.8 54.87 246.93 54.87"/>
  <rect class="cls-1" x="289.51" y="54.87" width="11.99" height="43.27"/>
  <path class="cls-1" d="M295.51,76.51"/>
  <polygon class="cls-1" points="387.9 54.87 399.82 54.87 399.82 98.14 386.87 98.14 371.21 72.48 371.21 98.14 359.31 98.14 359.31 54.87 372.52 54.87 387.9 80.4 387.9 54.87"/>
  <polygon class="cls-1" points="626.8 54.87 638.73 54.87 638.73 98.14 625.77 98.14 610.12 72.48 610.12 98.14 598.22 98.14 598.22 54.87 611.42 54.87 626.8 80.4 626.8 54.87"/>
  <polygon class="cls-1" points="646.27 54.87 646.27 98.14 658.15 98.14 658.15 80.16 674.22 98.14 688.43 98.14 668.16 75.85 687.79 54.87 673.55 54.87 658.15 71.36 658.15 54.87 646.27 54.87"/>
  <path class="cls-1" d="M532.44,44.66c8.65,0,13.68,5.32,13.68,14.71,0,8.78-6.65,10.12-6.65,10.12,5.42,1.13,8,6.26,8,12.55,0,16.1-12.88,16.1-14.61,16.1H501V44.66ZM513.16,88h16.57s5.05,0,5.05-6.18-5.05-6.18-5.05-6.18H513.16Zm0-21.54H529s5.06,0,5.06-6.18S529,54.13,529,54.13H513.16Z"/>
  <polygon class="cls-1" points="466.48 88.03 466.48 54.87 454.5 54.87 454.5 98.14 487.08 98.14 487.08 88.03 466.48 88.03"/>
  <path class="cls-2" d="M707.24,9h0l17.39-9h0A.75.75,0,0,1,725,0a.74.74,0,0,1,.71.7l1.39,30.59-10,4.83L752.66,50.8l-.26,4.78-24.6-9.8.55,13-8.79,4.61L751.69,76.5l-.09,3.84L729,71.73l.47,11.1h0l-7.76,4.36,29.07,12.61-.09,3.75L730,95.1l.36,8.93h0l-6.81,4,26.5,12-.11,3.27-19-8.45.33,8.17h0l-6,3.66,24,11.8-.07,2.75L731.75,133l.3,6.9h0l-5.26,3.25,22,11.23-.14,2.6-16.18-7.93.44,9.47s0,.09,0,.13a2,2,0,0,1-.73,1.5h0l-6.83,5.2a.57.57,0,0,1-.93-.42h0L706.47,10.43a.6.6,0,0,1,0-.15A1.45,1.45,0,0,1,707.24,9Z"/>
  <path class="cls-2" d="M750,179.66v-.07h0l7.89-148.38h0a2.32,2.32,0,0,1,1-1.63l18-11.3h0a.76.76,0,0,1,.43-.12.74.74,0,0,1,.71.76v0L760.08,171.78h0a2.07,2.07,0,0,1-.61,1.15L751,180l-.08.07h0a.57.57,0,0,1-.4.14h0A.59.59,0,0,1,750,179.66Z"/>
  <path class="cls-2" d="M766.77,161.13a4.17,4.17,0,1,1,4.17,4.15A4.13,4.13,0,0,1,766.77,161.13Zm7.7,0a3.53,3.53,0,1,0-3.53,3.51A3.54,3.54,0,0,0,774.47,161.13Zm-1.55,2.24h-.77l-1.36-2.1H770v2.1h-.64v-4.54h2c.82,0,1.62.22,1.62,1.2s-.63,1.22-1.44,1.25Zm-2.13-2.73c.56,0,1.55.11,1.55-.62,0-.47-.62-.55-1.11-.55H770v1.17Z"/>
  <path class="cls-1" d="M330.73,54.21h0c-5.37,0-23.07.14-23.07,22.28v.15c0,21.9,17.7,22.28,23.08,22.28h0c5.43,0,23.08-.38,23.08-22.28v-.15C353.81,54.35,336.15,54.21,330.73,54.21Zm10.65,22.31v.09c0,13-7.91,13.26-10.66,13.26s-10.66-.24-10.66-13.26v-.09c0-13.12,7.84-13.29,10.66-13.3S341.38,63.4,341.38,76.52Z"/>
  <path class="cls-2" d="M98.76,181l-2.55-8.3H86L83.44,181H78l10.35-31.6h6.06L104.51,181Zm-7.48-26.35h0c-.64,2.32-3.33,11.81-4,13.68H95C94.7,167.64,91.51,155.88,91.29,154.65Z"/>
  <path class="cls-2" d="M126,181l-7.07-14.82a94.43,94.43,0,0,1-4-9.35l-.14.14c.23,2.64.27,5.65.32,8.75l.18,15.27h-5.15V149.45H116l7.66,15.41a57.51,57.51,0,0,1,3.24,8.12l.14-.14c-.14-1.6-.46-6.11-.46-9l-.09-14.41h5V181Z"/>
  <path class="cls-2" d="M169.17,181l-2.74-4.88c-2.19-3.88-3.65-6.06-5.38-7.8a2.67,2.67,0,0,0-2.05-1V181h-5.15V149.45h9.62c7.07,0,10.26,4.1,10.26,9,0,4.51-2.92,8.66-7.84,8.66,1.14.59,3.24,3.65,4.88,6.29l4.65,7.57Zm-7.29-27.31H159v10h2.69c2.74,0,4.19-.37,5.15-1.32a5.31,5.31,0,0,0,1.41-3.83C168.26,155.33,166.52,153.69,161.87,153.69Z"/>
  <path class="cls-2" d="M191.19,181H182V149.45h8.34c4.7,0,6.34.32,8.3,1.55a7,7,0,0,1,3.56,6.2c0,3.37-1.91,5.88-5.43,6.88,5.24,1.28,6.7,4.83,6.7,8C203.5,178.31,199.17,181,191.19,181Zm3-26.9a8.64,8.64,0,0,0-3-.36h-4v8.62h4.38c1.91,0,2.87-.14,3.88-1.18a4.71,4.71,0,0,0,1.23-3.15A4.09,4.09,0,0,0,194.16,154.1Zm.59,12.86a9.42,9.42,0,0,0-2.92-.27h-4.6v10H192c4,0,5.75-2.28,5.75-5.11A4.61,4.61,0,0,0,194.75,167Z"/>
  <path class="cls-2" d="M223.71,181.5a12.39,12.39,0,0,1-10-4.56,17.28,17.28,0,0,1-3.6-11.26,20,20,0,0,1,2.1-9.58,13,13,0,0,1,11.63-7.25,12.58,12.58,0,0,1,7.84,2.46l-2.42,3.47a8.76,8.76,0,0,0-5.38-1.78,7,7,0,0,0-6.29,3.78c-1.09,1.91-1.64,4.56-1.64,8.3s.41,6.06,1.23,7.84a7.35,7.35,0,0,0,7,4.47,8.36,8.36,0,0,0,5.65-2l2.46,3.33A13.65,13.65,0,0,1,223.71,181.5Z"/>
  <path class="cls-2" d="M263.47,181.5a12.39,12.39,0,0,1-10-4.56,17.28,17.28,0,0,1-3.6-11.26,20,20,0,0,1,2.1-9.58,13,13,0,0,1,11.63-7.25,12.58,12.58,0,0,1,7.84,2.46L269,154.78a8.76,8.76,0,0,0-5.38-1.78,7,7,0,0,0-6.29,3.78c-1.09,1.91-1.64,4.56-1.64,8.3s.41,6.06,1.23,7.84a7.35,7.35,0,0,0,7,4.47,8.36,8.36,0,0,0,5.65-2l2.46,3.33A13.65,13.65,0,0,1,263.47,181.5Z"/>
  <path class="cls-2" d="M289.51,181.5c-9,0-13.4-6.93-13.4-16.28,0-10.39,5.29-16.23,13.18-16.23,8.89,0,13.18,7.07,13.18,16.28C302.45,175.12,297.71,181.5,289.51,181.5ZM289.23,153c-5.29,0-7.29,4.29-7.29,11.85,0,8.12,2.05,12.63,7.43,12.63,4.7,0,7.11-3.47,7.11-11.94C296.48,157.88,294.89,153,289.23,153Z"/>
  <path class="cls-2" d="M335.88,181l-1.46-19.56c-.14-2-.23-4.51-.23-5.47-.23,1-.64,3.06-1.23,5.06l-5.75,20h-4.47l-5.24-19.1c-.59-2.1-1.19-4.92-1.37-6,0,1-.18,4.06-.32,6L314.45,181H309.3l2.87-31.55h7L324,167.32c.73,2.64,1,4.42,1.19,5.38a50.52,50.52,0,0,1,1.14-5.29l5-18h7L341,181Z"/>
  <path class="cls-2" d="M360,169h-5.33v12h-5.2V149.45h8.39c4.6,0,6.29.46,8,1.5a8.83,8.83,0,0,1,4.33,7.93C370.22,165.09,365.7,169,360,169Zm3.15-13.72a5.67,5.67,0,0,0-4.38-1.55h-4.1v11.08h4.1c3.88,0,5.65-1.82,5.65-5.56A5.54,5.54,0,0,0,363.15,155.24Z"/>
  <path class="cls-2" d="M392,181l-2.55-8.3H379.25l-2.55,8.3h-5.43l10.35-31.6h6.06L397.76,181Zm-7.48-26.35h0c-.64,2.32-3.33,11.81-4,13.68h7.75C388,167.64,384.76,155.88,384.54,154.65Z"/>
  <path class="cls-2" d="M419.24,181l-7.07-14.82a94.43,94.43,0,0,1-4-9.35L408,157c.23,2.64.27,5.65.32,8.75l.18,15.27h-5.15V149.45h5.93L417,164.86a57.51,57.51,0,0,1,3.24,8.12l.14-.14c-.14-1.6-.46-6.11-.46-9l-.09-14.41h5V181Z"/>
  <path class="cls-2" d="M444.91,168.28V181h-5.43V168.23l-9.94-18.78h6.34l4.74,9.89a40.21,40.21,0,0,1,1.69,4.06c.18-.46,1-2.42,1.73-4l4.83-10H455Z"/>
  <g id="RBC_Logo">
    <path class="cls-3" d="M54.67,191.68A4,4,0,0,1,52,195.92,66.05,66.05,0,0,1,28.81,200a66.07,66.07,0,0,1-23.14-4.09A4,4,0,0,1,3,191.68V132H54.67Z"/>
    <path class="cls-4" d="M16.82,168.37C9.66,163.9,7.3,161.92,7.1,159a7,7,0,0,1,.35-2.32l-.67-.45a5.94,5.94,0,0,0-.88,3,7.12,7.12,0,0,0,1.21,4c1,1.55,2.07,2.52,4.67,4.48a17.78,17.78,0,0,1,5.83,7.14H18V172c3.8,2.15,7.14,4.18,8.79,7.81h.4C26.54,176,24.42,173.11,16.82,168.37Z"/>
    <path class="cls-4" d="M49.81,179.77h-.48c0-2.67-2.45-3.4-5-3.4h-8a13.48,13.48,0,0,1,.18,4.32h-.4c-.74-6-4.14-9-8.88-12.16v2.73h-.4c-1.26-2.82-4-5.47-6.66-7.34h0L18,162.38v2.95h-.4c-1.11-2.92-3.13-5.11-6-7.7-3.11-2.8-4.36-4.47-5.09-6.4a9.08,9.08,0,0,1-.58-3.39,5.85,5.85,0,0,1,2.57-5.14v1.11a5.62,5.62,0,0,0-1.09,3.37,7.55,7.55,0,0,0,.83,3.44C10,154,15.87,158,19.62,160.56c11.65,7.81,14,9.18,15.91,13.32a10.31,10.31,0,0,1,.61,1.8L45,174.32c.21,0,.67-.09.9-.1a8.81,8.81,0,0,0,2.59-2.57l-4.46-.35a13.64,13.64,0,0,1-.66,1.29h-.36q.18-.68.32-1.34l-1.14-.08v-.24l1.24-.15a22.11,22.11,0,0,0,.37-3.57l-5.62-.32c0,.58,0,1.12,0,1.62h-.36c-.12-.56-.21-1.12-.29-1.66l-1.23-.07v-.38l1.17-.06a25.59,25.59,0,0,1-.11-4.07l-3.29-.15a6.64,6.64,0,0,1,.43.9,10.84,10.84,0,0,1,.31,5.38h-.4a12,12,0,0,0-.87-3.68c-.91-2.14-3-4-6.37-6.24v2.74h-.4c-1.14-3.6-4-5.6-8.18-7.76-3.47-1.78-4.55-3.93-4.36-7.26l1.17.69a5.17,5.17,0,0,0,5.19,4.89,21.83,21.83,0,0,0,4.19-.47c1.92-.39,3.71-.72,5.19-.19v-1.84H28.83a4,4,0,0,1-2.51.8,3.69,3.69,0,0,1-4-3.66c0-2.52,2.13-2.92,3.87-2.92.93,0,2.47,0,3-.06a1.3,1.3,0,0,0,.87-.27,1.07,1.07,0,0,0,.3-.65,6.93,6.93,0,0,0,.05-1.17v-1.84h-8v3.18l-3-1.16v-.76h1.46v-1.26H15.39v-2.64H13.54a2.17,2.17,0,0,0-2.21,2c-.08,1.29.5,2.37,1.83,2.37h.24v1.54h-.24a4,4,0,0,1-4.07-4.06,4.37,4.37,0,0,1,4.54-4.25h3.92v2.64H32.79V141c0,.66,0,1.54-.1,2.1a2.4,2.4,0,0,1-1,1.73,3.79,3.79,0,0,1-2.3.5c-.37,0-1.45,0-2.75-.1-1.74-.11-2.23.56-2.3,1.18a1.63,1.63,0,0,0,0,.38,3.52,3.52,0,0,1,3.27-.66c2.3.72,3,.79,4.15-.15l.12.27a3,3,0,0,1-.7.74h1.11v6L35.8,151h9.71l4.78,2.5a1.56,1.56,0,0,1,.92,1.25,2.28,2.28,0,0,1-.27,1.43l-1.85,3a10.43,10.43,0,0,1-1.2,15.26,5.32,5.32,0,0,1,2.86,2.12ZM28.16,147.35a2.77,2.77,0,0,0-2.91.62,2.78,2.78,0,0,0,1.4.24A2.08,2.08,0,0,0,28.16,147.35ZM27.37,156l3.84-2.3a5.81,5.81,0,0,0-2.58-.63,33.1,33.1,0,0,0-4.64.75C24.48,154.18,26.2,155.28,27.37,156Zm17.15.24.53-.75-.82-1.1.14-.24,2.32,1.25L46.19,157a9.93,9.93,0,0,1,1.18.71l1.5-2.46-3.88-2H36.41l-7,4.19a18.4,18.4,0,0,1,3.36,2.88,10.44,10.44,0,0,1,8.38-4.44A10.71,10.71,0,0,1,44.53,156.27Zm-.7,9.72a20.2,20.2,0,0,0-.42-3.46l-4.54-.21a28.21,28.21,0,0,0-.61,4Zm1.53-3.37a16.71,16.71,0,0,1,.09,3.29l4.5-.24a8.7,8.7,0,0,0-.84-2.88Zm-2.3-1.47a16.08,16.08,0,0,0-1.33-3.29l-.57,0a8.67,8.67,0,0,0-.94.07,28.39,28.39,0,0,0-1.13,3.45Zm1.25-2.73a19.55,19.55,0,0,1,.77,2.61l2.75-.15A8.85,8.85,0,0,0,44.31,158.42ZM49.38,170a7.35,7.35,0,0,0,.59-2.48l-4.68-.27a16.09,16.09,0,0,1-.93,3.38ZM37.84,158.6a8.4,8.4,0,0,0-3.61,3l3.2-.17A21.2,21.2,0,0,1,37.84,158.6Z"/>
    <path class="cls-5" d="M31.9,186.68a2.89,2.89,0,0,0,2.55-2.76c0-1.38-.59-2.9-4.66-2.9H22.92v.11a2,2,0,0,1,.75.45,2.81,2.81,0,0,1,.64,2V193.9H30c3.13,0,5.4-1.19,5.4-3.93C35.41,187.74,33.68,186.79,31.9,186.68ZM29,182.24c1.46,0,2.45.32,2.45,1.87s-1.32,2.11-2.83,2.11h-1.3v-4Zm.15,10.44H27.28v-5.26H29c2.41,0,3.33.72,3.33,2.52S31.16,192.68,29.12,192.68Z"/>
    <path class="cls-5" d="M17.85,193.9h3.71l-4.74-6.06c1.9-.51,3.32-1.55,3.32-3.43,0-2.22-1.33-3.39-4.8-3.39H8.18v.11a2.19,2.19,0,0,1,.75.45,3,3,0,0,1,.65,2.27v10h3v-5.71h1.09Zm-5.29-11.66h2c1.67,0,2.54.49,2.54,2.26,0,1.58-1.14,2.52-3,2.52H12.56Z"/>
    <path class="cls-5" d="M47.44,182.78a2.45,2.45,0,0,1,1,1s.12,0,.12,0l.65-2.2a7.15,7.15,0,0,0-3.93-.84c-4.19,0-7.32,2.11-7.32,6.73,0,5.2,3.74,6.55,7,6.55,3.06,0,4.27-1,4.27-1v-1.51a5.14,5.14,0,0,1-3.4,1c-1.92,0-4.73-.88-4.79-5.15-.06-3.95,1.66-5.24,4-5.24A4.4,4.4,0,0,1,47.44,182.78Z"/>
  </g>
  <path class="cls-3" d="M58.87,199a3.23,3.23,0,1,1,3.21-3.23A3.22,3.22,0,0,1,58.87,199Zm0-5.82a2.6,2.6,0,1,0,2.49,2.59A2.52,2.52,0,0,0,58.87,193.15Zm.22.76A1,1,0,0,1,60.16,195a.93.93,0,0,1-.81,1,.85.85,0,0,1,.15.16c.21.26.87,1.41.87,1.41h-.86c-.14-.24-.2-.34-.34-.6-.36-.65-.47-.82-.6-.89a.39.39,0,0,0-.11,0v1.51h-.71v-3.62Zm-.64,1.56h.25c.31,0,.45,0,.55-.12a.51.51,0,0,0,.14-.36.42.42,0,0,0-.26-.44,1.42,1.42,0,0,0-.41-.05h-.26Z"/>
</svg>
